<svg xmlns="http://www.w3.org/2000/svg" viewBox="0 0 128 128">
  <defs><linearGradient id="g" x1="0" x2="1" y1="0" y2="1"><stop stop-color="#20d8ff"/><stop offset=".48" stop-color="#2f80ff"/><stop offset="1" stop-color="#7650ff"/></linearGradient></defs>
  <rect width="128" height="128" rx="30" fill="#070a12"/>
  <path fill="url(#g)" d="M17 17h74L78 33H37v22h45L70 70H37v41H17z"/>
  <path fill="url(#g)" d="M54 17h29c23 0 36 11 36 29 0 13-7 22-18 26 14 5 21 14 21 29 0 20-14 31-41 31H44l15-18h25c13 0 19-5 19-14 0-8-6-13-19-13H59l14-17h11c12 0 18-4 18-13s-6-13-18-13H68z"/>
  <path d="M93 11 42 118" stroke="#fff" stroke-width="4" opacity=".9"/>
</svg>
